<svg width="126" height="161" viewBox="0 0 126 161" fill="none" xmlns="http://www.w3.org/2000/svg">
<path d="M6.23298 1.65308C4.15532 2.71104 2.2117 4.29799 1.34043 5.55431C0 7.73634 0 8.4637 0 80.7355C0 151.883 0.0670213 153.801 1.34043 155.652C2.01064 156.776 3.75319 158.297 5.16064 159.157L7.70745 160.678H62.5308C121.577 160.678 119.164 160.81 122.381 157.239C126.201 153.14 126 157.702 126 80.6033C126 9.6539 126 9.6539 124.593 6.74451C123.721 5.02533 122.046 3.1739 120.437 2.11594L117.689 0.330627L63.7372 0.132263L9.71808 1.52588e-05L6.23298 1.65308ZM113.936 80.6694V149.437H62.6649H11.3936V80.6694V11.9021H62.6649H113.936V80.6694Z" fill="#00D5FF"/>
<path d="M52.9469 23.738C47.6522 25.3911 43.5639 27.9699 39.7437 31.9372C32.8405 39.0784 30.5618 45.4262 30.9639 55.8074C31.1649 61.8907 31.433 62.9486 33.7118 67.6433C43.2288 87.0172 69.7692 91.3813 85.1171 76.107C95.0362 66.1886 97.315 51.9723 91.149 39.2768C89.2054 35.3756 83.1064 28.8956 79.2862 26.6474C72.0479 22.4817 60.7884 21.2254 52.9469 23.738ZM70.9756 36.698C72.7852 37.5576 75.466 39.6735 76.9405 41.3266C87.3958 53.0964 80.0235 71.809 64.3405 73.1976C51.3384 74.3878 41.1511 63.2131 43.4969 50.5176C45.9096 37.8882 59.649 31.0115 70.9756 36.698Z" fill="#00D5FF"/>
<path d="M56.0298 43.1119C52.2766 45.2939 50.6681 48.7323 50.6011 54.6172C50.6011 58.4523 50.8692 59.7747 52.0085 61.2956C55.3596 65.7258 60.7883 67.5772 66.15 66.0564C76.0692 63.3454 78.0798 49.658 69.5011 43.3764C66.6192 41.2605 59.4479 41.1282 56.0298 43.1119Z" fill="#00D5FF"/>
<path d="M59.4478 99.4482C56.0297 100.705 54.9574 101.696 53.4159 105.069C51.7404 108.838 52.2765 112.937 54.9574 115.979C56.901 118.161 56.901 118.227 57.1021 127.682L57.3031 137.204L61.6595 137.403C69.434 137.733 69.0318 138.328 69.0318 127.418C69.0318 118.161 69.0989 117.896 70.7074 116.376C75.0638 112.342 74.0584 103.812 68.8978 100.638C65.8818 98.787 62.4638 98.3903 59.4478 99.4482Z" fill="#00D5FF"/>
</svg>
