<svg width="219" height="74" viewBox="0 0 219 74" fill="none" xmlns="http://www.w3.org/2000/svg">
<path d="M2.68304 0.761314C1.7887 1.24856 0.952048 1.97942 0.576999 2.55801C0 3.56295 0 3.89793 0 37.1826C0 69.9495 0.0288499 70.8326 0.576999 71.6853C0.865498 72.203 1.6156 72.9034 2.22145 73.2993L3.31774 73.9997H26.917C52.3338 73.9997 51.2952 74.0606 52.68 72.4162C54.3244 70.5281 54.2379 72.6293 54.2379 37.1217C54.2379 4.44608 54.2379 4.44608 53.632 3.10616C53.257 2.31439 52.5357 1.46172 51.8433 0.97448L50.6605 0.152267L27.4363 0.0609055L4.18324 0L2.68304 0.761314ZM49.0449 37.1521V68.8228H26.9747H4.90449V37.1521V5.48146H26.9747H49.0449V37.1521Z" fill="#00D5FF"/>
<path d="M22.7915 10.9325C20.5123 11.6938 18.7525 12.8814 17.108 14.7086C14.1365 17.9975 13.1556 20.9209 13.3287 25.702C13.4153 28.5036 13.5307 28.9908 14.5116 31.153C18.6082 40.0756 30.0328 42.0854 36.6395 35.0509C40.9093 30.483 41.8902 23.9357 39.236 18.0888C38.3993 16.2921 35.774 13.3078 34.1295 12.2724C31.0137 10.3539 26.1669 9.77527 22.7915 10.9325ZM30.5521 16.9012C31.3311 17.2971 32.4851 18.2715 33.1198 19.0328C37.6204 24.4534 34.4469 33.0715 27.696 33.711C22.0991 34.2591 17.7139 29.1126 18.7236 23.2658C19.7622 17.4493 25.6765 14.2822 30.5521 16.9012Z" fill="#00D5FF"/>
<path d="M24.1186 19.8551C22.503 20.86 21.8106 22.4436 21.7817 25.1538C21.7817 26.9201 21.8971 27.5291 22.3876 28.2295C23.8301 30.2699 26.1669 31.1225 28.4749 30.4221C32.7447 29.1736 33.6102 22.8699 29.9174 19.9769C28.6769 19.0024 25.5899 18.9415 24.1186 19.8551Z" fill="#00D5FF"/>
<path d="M25.5899 45.8007C24.1186 46.3793 23.657 46.8361 22.9934 48.3892C22.2722 50.1249 22.503 52.013 23.657 53.4138C24.4936 54.4188 24.4936 54.4492 24.5802 58.8039L24.6667 63.1891L26.542 63.2805C29.8886 63.4327 29.7155 63.7068 29.7155 58.6821C29.7155 54.4188 29.7443 54.2969 30.4367 53.5965C32.3119 51.7389 31.8792 47.8106 29.6578 46.3488C28.3595 45.4962 26.8882 45.3134 25.5899 45.8007Z" fill="#00D5FF"/>
<path d="M147.135 21.6822V34.4114H149.154H151.145L151.347 33.376L151.52 32.3406L152.789 33.3456C154.578 34.8073 156.655 35.2032 158.992 34.5637C161.617 33.8633 163.233 32.5233 164.416 30.0567C165.31 28.1991 165.426 27.7423 165.426 25.4888C165.454 19.7028 162.714 16.2312 157.925 15.8962C155.501 15.744 153.857 16.2312 152.559 17.5102C152.126 17.9366 151.693 18.2715 151.607 18.2715C151.52 18.2715 151.462 16.2312 151.462 13.7341V9.19668L149.299 9.07487L147.135 8.98351V21.6822ZM158.675 20.9818C160.06 22.0172 160.694 23.3876 160.694 25.2452C160.694 27.316 160.031 28.7777 158.646 29.7826C157.838 30.3917 157.376 30.483 155.992 30.3917C154.665 30.2698 154.174 30.0871 153.453 29.3563C152.039 27.9555 151.664 26.9505 151.808 24.9407C152.01 21.8649 154.145 19.8855 156.799 20.251C157.434 20.3423 158.271 20.6773 158.675 20.9818Z" fill="black"/>
<path d="M68.6631 21.804V34.4723L74.6639 34.3505C80.405 34.2287 80.6935 34.1982 82.2803 33.4369C83.2035 32.9801 84.5883 31.9752 85.4249 31.153C90.9929 25.641 90.0697 15.1045 83.6651 11.0238C81.0397 9.37939 79.828 9.13577 73.9426 9.13577H68.6631V21.804ZM78.0682 13.7341C80.5204 14.1909 82.2514 15.3785 83.3477 17.4189C85.6269 21.5909 84.4152 26.8287 80.7224 28.8081C79.3953 29.5085 78.8183 29.6303 76.4526 29.6608C74.9524 29.6912 73.683 29.5999 73.6541 29.4476C73.5964 29.3258 73.5676 25.6715 73.5676 21.3168V13.3991H74.9235C75.6448 13.3991 77.0873 13.5514 78.0682 13.7341Z" fill="black"/>
<path d="M188.39 21.7736V34.4114H190.698H193.006V21.7736V9.13576H190.698H188.39V21.7736Z" fill="black"/>
<path d="M196.468 21.7736V34.4114H198.776H201.084V21.7736V9.13576H198.776H196.468V21.7736Z" fill="black"/>
<path d="M97.3107 16.4748C95.4354 17.2362 93.3294 19.3374 92.5504 21.2559C92.2042 22.0781 91.8869 23.5703 91.8003 24.8188C91.5695 28.8081 93.3871 32.0361 96.8202 33.8328C100.455 35.7209 104.754 34.99 107.61 31.9752C109.457 30.0262 110.062 28.3818 110.062 25.2756C110.062 23.144 109.947 22.4436 109.37 21.3168C108.447 19.4287 106.889 17.7539 105.158 16.8098C103.138 15.7135 99.4744 15.5613 97.3107 16.4748ZM103.513 20.9209C104.552 21.6822 105.591 23.9053 105.591 25.2756C105.591 26.7678 104.494 28.9299 103.311 29.7522C101.984 30.6962 99.9649 30.6962 98.6378 29.7522C97.4838 28.9604 96.3586 26.7678 96.3586 25.367C96.3586 24.2098 97.0222 22.3826 97.7434 21.4995C98.984 20.0378 101.984 19.7333 103.513 20.9209Z" fill="black"/>
<path d="M117.823 16.4444C115.861 17.2666 114.102 18.9111 113.15 20.8296C112.457 22.1999 112.371 22.7176 112.371 25.2756C112.371 27.925 112.457 28.3209 113.207 29.7826C114.938 33.0715 117.852 34.8377 121.487 34.8073C125.122 34.7768 128.007 33.041 129.709 29.7826C130.46 28.3209 130.546 27.8946 130.546 25.4279C130.546 23.144 130.431 22.4436 129.854 21.3168C128.93 19.4287 127.373 17.7539 125.642 16.8098C123.651 15.7135 119.958 15.5613 117.823 16.4444ZM123.997 20.9209C125.065 21.7127 126.074 23.9357 126.074 25.4279C126.045 29.2345 121.978 31.762 119.121 29.7522C117.967 28.9604 116.842 26.7678 116.842 25.367C116.842 24.2098 117.506 22.3826 118.227 21.4995C119.468 20.0378 122.468 19.7333 123.997 20.9209Z" fill="black"/>
<path d="M140.326 16.2617C139.836 16.5053 139.143 16.9925 138.797 17.3884L138.191 18.0888V17.1143V16.1398H135.883H133.575V25.2756V34.4114H135.883H138.191V28.8081C138.191 23.2048 138.191 23.1744 138.941 22.2608C139.951 20.9818 140.643 20.6468 142.605 20.4337C143.528 20.3423 144.25 20.1596 144.25 20.0073C144.25 19.8855 144.25 18.911 144.25 17.8147V15.8353H142.749C141.913 15.8658 140.817 16.0485 140.326 16.2617Z" fill="black"/>
<path d="M173.36 16.2922C171.542 16.9012 169.551 18.8502 168.57 20.9514C167.878 22.4436 167.763 23.0526 167.763 25.2757C167.763 28.4123 168.484 30.3308 170.301 32.2188C172.119 34.1069 173.908 34.8073 176.764 34.8073C178.841 34.8073 179.36 34.6855 181.005 33.8328C182.592 33.0106 184.64 31.0616 184.64 30.3308C184.64 30.2394 183.774 29.9045 182.707 29.539C180.803 28.93 180.803 28.93 180.197 29.5086C179.332 30.3612 178.178 30.7571 176.62 30.7571C174.485 30.7571 172.869 29.4477 172.379 27.316L172.177 26.4938H178.726H185.303L185.159 24.2707C184.928 20.8296 183.572 18.4543 180.832 16.9012C179.591 16.1703 178.899 16.0181 176.995 15.9267C175.523 15.8658 174.196 16.0181 173.36 16.2922ZM178.408 20.2205C179.303 20.6164 180.601 22.0172 180.601 22.5654C180.601 22.7176 178.783 22.8395 176.562 22.8395C174.34 22.8395 172.523 22.7481 172.523 22.5958C172.523 21.9868 173.59 20.8905 174.658 20.3728C176.071 19.7028 177.11 19.6419 178.408 20.2205Z" fill="black"/>
<path d="M68.7785 42.6031C68.7208 42.664 68.6631 47.3842 68.6631 53.0483V63.3413H70.6826H72.7021V59.687V56.0327H73.9426L75.1543 56.0631L77.4623 59.687L79.7703 63.3109L81.8764 63.3413C83.0015 63.3413 83.9536 63.25 83.9536 63.1586C83.9536 63.0368 82.915 61.3923 81.6456 59.5043C80.3762 57.6162 79.3376 55.9413 79.3376 55.7891C79.3376 55.6673 79.7992 55.3018 80.3473 55.0278C81.6456 54.3578 82.9727 52.1652 83.2323 50.2772C83.492 48.2673 82.9727 46.501 81.7321 45.0393C79.9434 42.9685 79.5107 42.8163 73.9138 42.6336C71.1442 42.5422 68.8362 42.5422 68.7785 42.6031ZM78.4432 46.7142C79.828 48.0237 79.9146 50.4599 78.6452 51.7389C77.7797 52.5916 76.4237 52.9874 74.3754 52.9874H72.7021V49.394V45.8311L75.2697 45.9834C77.2027 46.1052 78.0105 46.3183 78.4432 46.7142Z" fill="black"/>
<path d="M165.916 43.1208C165.108 44.1867 165.166 45.2221 166.032 46.1356C167.965 48.2064 170.792 45.4048 169.176 42.999C168.513 41.9941 166.695 42.055 165.916 43.1208Z" fill="black"/>
<path d="M183.486 42.9381C182.678 43.7908 182.736 45.4048 183.572 46.227C184.467 47.1101 185.649 47.0797 186.515 46.1356C187.38 45.222 187.438 44.1867 186.63 43.1208C185.88 42.1159 184.351 42.0245 183.486 42.9381Z" fill="black"/>
<path d="M173.965 46.5924V48.7241H172.523H171.08V50.399V52.0739H172.523H173.965V56.2459C173.965 59.9306 174.052 60.5701 174.542 61.4533C175.292 62.7323 176.648 63.3413 178.87 63.3413H180.601V61.8187V60.2961H179.591C177.744 60.2961 177.427 59.6261 177.427 55.4845V51.9216L179.158 52.013L180.889 52.1348V50.4294V48.7241H179.158H177.427V46.5924V44.4607H175.696H173.965V46.5924Z" fill="black"/>
<path d="M89.3769 48.7241C84.2993 50.3381 82.9145 57.9817 87.0112 61.7578C89.8674 64.4376 94.6564 64.2854 97.4549 61.4228C97.9453 60.9051 98.3781 60.3875 98.3781 60.2352C98.3781 60.1134 97.7145 59.8089 96.9067 59.5652C95.4931 59.1084 95.3777 59.1084 94.5699 59.7479C92.4061 61.3619 89.1461 60.4179 88.4537 57.9208L88.2518 57.2508H93.4447H98.6666V55.85C98.6666 51.5258 95.7816 48.3891 91.858 48.4501C90.9348 48.4501 89.8097 48.5719 89.3769 48.7241ZM93.1274 51.9216C94.0506 52.3175 95.2046 53.6574 95.2046 54.3274C95.2046 54.4188 93.6467 54.5101 91.7426 54.5101C89.8385 54.5101 88.2806 54.3883 88.2806 54.236C88.2806 53.6879 89.55 52.2871 90.4155 51.8912C91.5695 51.3735 91.8003 51.3735 93.1274 51.9216Z" fill="black"/>
<path d="M104.293 48.9982C101.754 50.2467 100.311 52.8047 100.34 56.0327C100.369 59.3825 101.783 61.8187 104.495 63.0368C106.601 63.9808 109.543 63.7981 111.505 62.6105C112.659 61.8796 114.534 59.5043 114.534 58.7125C114.534 58.5298 111.909 57.5553 111.361 57.5553C111.246 57.5553 111.015 57.8903 110.842 58.3167C110.38 59.352 108.851 60.2961 107.61 60.2961C103.947 60.2961 102.475 54.906 105.476 52.4089C106.889 51.2212 109.486 51.7389 110.669 53.4138C111.188 54.1447 111.274 54.1447 112.746 53.8401C113.554 53.6574 114.246 53.3833 114.246 53.2311C114.246 52.0739 112.024 49.6072 110.322 48.8459C108.938 48.2369 105.706 48.2978 104.293 48.9982Z" fill="black"/>
<path d="M120.449 48.7545C119.15 49.12 117.275 50.9471 116.583 52.4698C115.89 53.9924 115.746 57.5553 116.323 58.9866C118.4 64.0417 124.776 65.2598 128.527 61.301C129.421 60.3874 129.94 59.4738 130.258 58.408C130.806 56.459 130.806 55.6368 130.258 53.7183C129.334 50.4599 126.565 48.3891 123.218 48.45C122.151 48.45 120.91 48.6023 120.449 48.7545ZM124.949 52.2261C127.488 53.627 127.603 58.1035 125.151 59.687C123.218 60.9356 120.91 60.2047 119.987 58.073C119.295 56.4286 119.295 55.3932 120.016 53.901C120.968 51.9216 123.074 51.2212 124.949 52.2261Z" fill="black"/>
<path d="M136.374 48.7241C132.277 50.0336 130.662 56.9158 133.576 60.6615C135.451 63.0673 139.259 63.8895 141.856 62.4887C142.49 62.1232 143.096 61.6664 143.183 61.4533C143.269 61.2401 143.356 61.6969 143.356 62.5191C143.385 63.7677 143.24 64.1331 142.404 65.1076C141.452 66.1734 141.336 66.2343 139.519 66.2343C137.73 66.2343 137.586 66.1734 136.518 65.0771L135.422 63.9199L134.268 64.8944C133.662 65.4121 133.085 65.8689 133.027 65.9298C132.768 66.2343 134.355 68.0006 135.537 68.7314C136.749 69.4927 137.182 69.5841 139.519 69.5841C141.913 69.5841 142.231 69.5232 143.558 68.6705C144.423 68.0919 145.289 67.1784 145.837 66.2648L146.702 64.7726L146.789 56.7331L146.875 48.7241H145.433C144.106 48.7241 143.962 48.785 143.788 49.4854C143.587 50.3076 143.269 50.4599 142.923 49.9118C142.259 48.7546 138.48 48.0541 136.374 48.7241ZM142.144 53.1093C142.981 54.0533 143.096 54.4187 143.096 55.8196C143.096 58.3776 141.798 59.687 139.23 59.687C137.672 59.687 136.374 58.6821 135.884 57.0986C134.643 53.1093 139.49 50.064 142.144 53.1093Z" fill="black"/>
<path d="M149.731 55.9109V63.3413H151.606H153.481V58.7734C153.481 53.7488 153.712 52.7743 155.068 52.1348C156.338 51.5257 157.751 51.678 158.53 52.5307C159.251 53.2615 159.251 53.3529 159.251 58.3166V63.3413H161.011H162.742L162.656 57.4335C162.569 50.8558 162.483 50.6121 160.377 49.0895C159.54 48.45 159.107 48.3891 157.347 48.4805C155.645 48.5718 155.126 48.7241 154.26 49.4245L153.193 50.2772V49.3331V48.3891L151.462 48.45L149.731 48.5109V55.9109Z" fill="black"/>
<path d="M165.887 55.9413V63.3413H167.618H169.349V55.9109V48.45L167.618 48.5109L165.887 48.5718V55.9413Z" fill="black"/>
<path d="M183.486 55.8804V63.3413H185.217H186.948L186.89 55.9413L186.804 48.5718L185.159 48.4805L183.486 48.3891V55.8804Z" fill="black"/>
<path d="M193.583 48.8155C193.035 48.9982 191.996 49.7899 191.246 50.5513C187.842 54.0228 188.476 59.9002 192.573 62.58C193.814 63.4022 194.218 63.4936 196.295 63.4936C198.92 63.4936 200.103 63.0368 201.632 61.4533C203.161 59.8697 203.796 58.2862 203.767 56.0327C203.738 52.7438 202.411 50.4294 199.786 49.1504C198.199 48.3587 195.4 48.2064 193.583 48.8155ZM198.43 52.3784C200.19 53.5052 200.709 56.0936 199.584 58.1948C197.593 61.9405 192.717 60.2961 192.717 55.8805C192.717 52.6829 195.891 50.734 198.43 52.3784Z" fill="black"/>
<path d="M206.248 48.7241C206.219 48.8154 206.191 52.1348 206.162 56.0936L206.133 63.3413H207.922H209.71L209.797 58.4384L209.883 53.5356L210.835 52.6525C212.047 51.4953 213.663 51.4344 214.845 52.5002L215.653 53.2311L215.74 58.2862L215.826 63.3413H217.413H219L218.913 57.4335C218.827 51.9825 218.769 51.4344 218.221 50.6426C217.125 49.0895 215.884 48.4196 214.124 48.4196C212.509 48.4196 210.028 49.3636 210.028 49.9726C210.028 50.1554 209.912 50.1858 209.739 50.0944C209.595 50.0031 209.451 49.6072 209.451 49.2418C209.451 48.6327 209.306 48.5718 207.864 48.5718C206.998 48.5718 206.248 48.6327 206.248 48.7241Z" fill="black"/>
</svg>
