<svg width="50" height="50" viewBox="0 0 50 50" fill="none" xmlns="http://www.w3.org/2000/svg">
<path fill-rule="evenodd" clip-rule="evenodd" d="M31.2498 39.5834C31.2498 41.78 29.5501 43.5795 27.3941 43.7386L27.0832 43.75H22.9165C20.7199 43.75 18.9203 42.0503 18.7613 39.8943L18.7498 39.5834H31.2498ZM25.0002 4.16669C32.8866 4.16669 39.3109 10.4267 39.5751 18.2487L39.5836 18.75V26.5915L43.3794 34.1836C44.105 35.6348 43.1347 37.3299 41.569 37.488L41.3298 37.5H8.6706C7.04814 37.5 5.96588 35.874 6.52462 34.4028L6.62087 34.1836L10.4168 26.5915V18.75C10.4168 10.6959 16.946 4.16669 25.0002 4.16669ZM25.0002 8.33335C19.3986 8.33335 14.8297 12.7548 14.5931 18.2982L14.5835 18.75V26.5915C14.5835 27.109 14.4871 27.6207 14.3005 28.1011L14.1436 28.455L11.7044 33.3334H38.2959L35.8567 28.455C35.6254 27.992 35.4827 27.4912 35.4349 26.9781L35.4169 26.5915V18.75C35.4169 12.9971 30.7532 8.33335 25.0002 8.33335Z" fill="#09244B"/>
</svg>
